<svg id="Layer_1" data-name="Layer 1" xmlns="http://www.w3.org/2000/svg" viewBox="0 0 600 300"><circle cx="427.14" cy="68.62" r="8.74"/><circle cx="494.64" cy="104.64" r="14.57"/><circle cx="427.14" cy="231.38" r="8.74"/><circle cx="494.64" cy="195.36" r="14.57"/><path d="M473.7,79.84a11.07,11.07,0,1,1-7.83-13.56A11.07,11.07,0,0,1,473.7,79.84Z"/><path d="M473.7,225.88a11.07,11.07,0,1,1-7.83-13.56A11.08,11.08,0,0,1,473.7,225.88Z"/><circle cx="508.43" cy="150.08" r="16.58" transform="translate(228.82 600.46) rotate(-74.61)"/><path d="M206.12,113.55h19v72.63h-19Zm11.55-32.46a10.92,10.92,0,1,0,7.73,13.37A10.92,10.92,0,0,0,217.67,81.09Zm65.64,106.57A32.47,32.47,0,0,1,270,185a22.68,22.68,0,0,1-9.55-7.73v45.09H242V113.55h18.29v10.09a25.63,25.63,0,0,1,9.55-8.47,28.23,28.23,0,0,1,13.32-3.1,34.25,34.25,0,0,1,13.18,2.62,33.35,33.35,0,0,1,11.16,7.6,37.53,37.53,0,0,1,7.73,12,40.48,40.48,0,0,1,2.89,15.6,39.55,39.55,0,0,1-2.95,15.67,38.6,38.6,0,0,1-7.81,11.9,33.51,33.51,0,0,1-24.07,10.23Zm-3.77-17.49a19.16,19.16,0,0,0,7.81-1.61,21.06,21.06,0,0,0,6.38-4.37,19.83,19.83,0,0,0,4.31-6.46,21.55,21.55,0,0,0,0-16,19.83,19.83,0,0,0-4.31-6.46,21.06,21.06,0,0,0-6.38-4.37,19,19,0,0,0-7.81-1.61,19.72,19.72,0,0,0-8,1.61,20.16,20.16,0,0,0-6.39,4.37,20.38,20.38,0,0,0-4.23,6.52,20.76,20.76,0,0,0-1.55,7.94,20.56,20.56,0,0,0,5.78,14.46,20,20,0,0,0,14.39,6Zm52-56.62h18.29v11.16a19,19,0,0,1,7.86-9.48,23.77,23.77,0,0,1,12.18-3,27.78,27.78,0,0,1,6.79.8,24.67,24.67,0,0,1,5.44,2l-6.72,18.29a12.93,12.93,0,0,0-4-1.81,20,20,0,0,0-5.64-.74q-7.14,0-11.44,4T350,147.85v38.33H331.52Zm91.63,74.11a38.65,38.65,0,0,1-15.2-3,37.9,37.9,0,0,1-12.17-8.14,37.43,37.43,0,0,1-11-26.7,37.81,37.81,0,0,1,2.89-14.72,36.53,36.53,0,0,1,8.07-12,38.51,38.51,0,0,1,27.37-11,38.8,38.8,0,0,1,15.13,3,38.14,38.14,0,0,1,12.24,8.07,37.49,37.49,0,0,1,11.09,26.76,36.61,36.61,0,0,1-2.95,14.66,39.05,39.05,0,0,1-8.07,12,37,37,0,0,1-12.18,8.14A39.09,39.09,0,0,1,423.16,187.66Zm.13-17.62a18.92,18.92,0,0,0,7.8-1.62,20.73,20.73,0,0,0,6.33-4.3,19.58,19.58,0,0,0,4.23-6.39,20.52,20.52,0,0,0,1.55-8,20.76,20.76,0,0,0-1.55-7.94,19.54,19.54,0,0,0-4.23-6.45,20.73,20.73,0,0,0-6.33-4.3,19.59,19.59,0,0,0-15.6,0,20.81,20.81,0,0,0-6.32,4.3,19.54,19.54,0,0,0-4.23,6.45,20.58,20.58,0,0,0-1.55,7.94,20.34,20.34,0,0,0,1.55,8,19.58,19.58,0,0,0,4.23,6.39,20.81,20.81,0,0,0,6.32,4.3A18.92,18.92,0,0,0,423.29,170ZM75,113.53H93.81l14.65,46.34,17.19-46.34h16.53l16.93,46.34,15.18-46.34H193.1l-24.59,72.55H151.05l-17.34-47.29-17.46,47.29H98.51Z"/></svg>